<?xml version="1.0" encoding="UTF-8"?>
<svg width="48px" height="56px" viewBox="0 0 48 56" version="1.1" xmlns="http://www.w3.org/2000/svg" xmlns:xlink="http://www.w3.org/1999/xlink">
    <!-- Generator: Sketch 54.1 (76490) - https://sketchapp.com -->
    <title>android-icon</title>
    <desc>Created with Sketch.</desc>
    <g id="Welcome-Page" stroke="none" stroke-width="1" fill="none" fill-rule="evenodd">
        <g id="example_2" transform="translate(-816.000000, -4176.000000)" fill="#888888">
            <g id="Download" transform="translate(0.000000, 3972.000000)">
                <g id="Play-Store" transform="translate(784.000000, 182.000000)">
                    <g id="android-icon" transform="translate(32.000000, 22.000000)">
                        <path d="M3.57211749,18 L3.42788251,18 C1.53441473,18 0,19.4911243 0,21.3047337 L0,35.6952663 C0,37.5088757 1.53441473,39 3.42788251,39 L3.57211749,39 C5.46558527,39 7,37.5088757 7,35.6952663 L7,21.3047337 C7,19.4911243 5.45330995,18 3.57211749,18" id="Fill-1"></path>
                        <path d="M8.4477,41.6915 C8.4477,43.3895 9.8307,44.7605 11.5317,44.7605 L14.8227,44.7605 L14.8227,52.6475 C14.8227,54.5015 16.3227,56.0015 18.1767,56.0015 L18.3147,56.0015 C20.1687,56.0015 21.6687,54.4895 21.6687,52.6475 L21.6687,44.7605 L26.2737,44.7605 L26.2737,52.6475 C26.2737,54.5015 27.7857,56.0015 29.6247,56.0015 L29.7657,56.0015 C31.6167,56.0015 33.1167,54.4895 33.1167,52.6475 L33.1167,44.7605 L36.4107,44.7605 C38.0967,44.7605 39.4917,43.3895 39.4917,41.6915 L39.4917,18.6635 L8.4477,18.6635 L8.4477,41.6915 Z" id="Fill-3"></path>
                        <path d="M30.6652908,11.7907932 C29.8410443,11.7907932 29.1774813,11.1400072 29.1774813,10.3316316 C29.1774813,9.52033782 29.8410443,8.88414338 30.6652908,8.88414338 C31.4895373,8.88414338 32.1531004,9.52033782 32.1531004,10.3316316 C32.1531004,11.1400072 31.4895373,11.7907932 30.6652908,11.7907932 M16.3347092,11.7907932 C15.5104627,11.7907932 14.8468996,11.1400072 14.8468996,10.3316316 C14.8468996,9.52033782 15.5104627,8.88414338 16.3347092,8.88414338 C17.15598,8.88414338 17.8225187,9.52033782 17.8225187,10.3316316 C17.8225187,11.1400072 17.15598,11.7907932 16.3347092,11.7907932 M31.1651949,4.76638944 L33.7569591,0.835408182 C33.9206182,0.596105686 33.8492033,0.254661879 33.5933001,0.0941541072 C33.3373968,-0.0780269574 33.0011519,-0.00798720231 32.8374928,0.254661879 L30.1415819,4.31113103 C28.1300634,3.50275552 25.8775197,3.04749711 23.5059512,3.04749711 C21.1195047,3.04749711 18.8699366,3.50275552 16.8554425,4.31113103 L14.1714341,0.254661879 C14.007775,-0.00798720231 13.6626032,-0.0780269574 13.4066999,0.0941541072 C13.1507967,0.254661879 13.0764062,0.596105686 13.2430409,0.835408182 L15.8348051,4.76638944 C11.1601075,7.01349825 8,11.2538218 8,16.1099114 C8,16.4075804 8.02380495,16.702331 8.04463429,17 L38.9523901,17 C38.976195,16.702331 39,16.4075804 39,16.1099114 C39,11.2538218 35.8369169,7.01349825 31.1651949,4.76638944" id="Fill-6"></path>
                        <path d="M44.5899,18.1235 L44.4489,18.1235 C42.5979,18.1235 41.0979,19.6355 41.0979,21.4745 L41.0979,36.0665 C41.0979,37.9055 42.6099,39.4175 44.4489,39.4175 L44.5899,39.4175 C46.4409,39.4175 47.9409,37.9055 47.9409,36.0665 L47.9409,21.4745 C47.9409,19.6355 46.4289,18.1235 44.5899,18.1235" id="Fill-8"></path>
                    </g>
                </g>
            </g>
        </g>
    </g>
</svg>