<?xml version="1.0" encoding="UTF-8"?>
<svg width="49px" height="57px" viewBox="0 0 49 57" version="1.1" xmlns="http://www.w3.org/2000/svg" xmlns:xlink="http://www.w3.org/1999/xlink">
    <!-- Generator: Sketch 54.1 (76490) - https://sketchapp.com -->
    <title>apple-icon</title>
    <desc>Created with Sketch.</desc>
    <g id="Welcome-Page" stroke="none" stroke-width="1" fill="none" fill-rule="evenodd">
        <g id="example_2" transform="translate(-445.000000, -4175.000000)" fill="#888888">
            <g id="Download" transform="translate(0.000000, 3972.000000)">
                <g id="App-Store" transform="translate(414.000000, 182.000000)">
                    <g id="apple-icon" transform="translate(31.000000, 21.000000)">
                        <path d="M49,41.6980042 C47.6606922,44.6887638 47.0196477,46.0234184 45.2958102,48.6663471 C42.8892264,52.3566767 39.4987701,56.9522461 35.2975527,56.9908397 C31.5632987,57.025525 30.6046414,54.5423445 25.5378684,54.5706791 C20.4715803,54.5980366 19.4130325,57.0343185 15.6782937,56.9996331 C11.4770762,56.960551 8.26361035,52.8110064 5.85751141,49.1211653 C-0.87054637,38.8029958 -1.57317381,26.693888 2.57567393,20.2565735 C5.52486654,15.6815223 10.175591,13.0039082 14.5499196,13.0039082 C19.0032877,13.0039082 21.8031296,15.4646165 25.4850138,15.4646165 C29.0563396,15.4646165 31.2335633,13 36.3822853,13 C40.2736484,13 44.3972811,15.1343725 47.3358058,18.8271448 C37.7089855,24.1413367 39.2723195,37.9949729 49,41.6980042" id="Fill-1"></path>
                        <path d="M32.0703133,9.44449791 C33.9701718,6.99531977 35.4151485,3.53550317 34.8917634,0 C31.7864434,0.214692651 28.15281,2.1983736 26.0311782,4.78358971 C24.1061853,7.13135774 22.5168096,10.6129404 23.1358037,13.9960811 C26.5259792,14.1014486 30.0334482,12.0692887 32.0703133,9.44449791" id="Fill-3"></path>
                    </g>
                </g>
            </g>
        </g>
    </g>
</svg>