<?xml version="1.0" encoding="utf-8"?>
<!-- Generator: Adobe Illustrator 16.0.0, SVG Export Plug-In . SVG Version: 6.00 Build 0)  -->
<!DOCTYPE svg PUBLIC "-//W3C//DTD SVG 1.1//EN" "http://www.w3.org/Graphics/SVG/1.1/DTD/svg11.dtd">
<svg version="1.1" id="Capa_1" xmlns="http://www.w3.org/2000/svg" xmlns:xlink="http://www.w3.org/1999/xlink" x="0px" y="0px"
	 width="12px" height="12px" viewBox="0 0 12 12" enable-background="new 0 0 12 12" xml:space="preserve">
<g>
	<path fill="#FFFFFF" d="M6,0C2.686,0,0,2.686,0,6c0,3.314,2.686,6,6,6c3.313,0,6-2.686,6-6C12,2.686,9.313,0,6,0z M9.792,4.409
		l-5.055,5.05L4.495,9.575C4.321,9.638,4.186,9.661,4.049,9.661H3.877L3.399,9.504L3.171,9.265L1.469,7.567
		C1.247,7.345,1.125,7.05,1.125,6.737c0-0.313,0.122-0.608,0.344-0.83c0.443-0.444,1.217-0.444,1.66,0l0.92,0.919l4.072-4.071
		c0.415-0.428,1.197-0.451,1.65-0.01c0.235,0.241,0.354,0.533,0.354,0.841C10.125,3.896,10.007,4.188,9.792,4.409z"/>
</g>
</svg>
