<?xml version="1.0" encoding="utf-8"?>
<!-- Generator: Adobe Illustrator 16.0.0, SVG Export Plug-In . SVG Version: 6.00 Build 0)  -->
<!DOCTYPE svg PUBLIC "-//W3C//DTD SVG 1.1//EN" "http://www.w3.org/Graphics/SVG/1.1/DTD/svg11.dtd">
<svg version="1.1" id="Capa_1" xmlns="http://www.w3.org/2000/svg" xmlns:xlink="http://www.w3.org/1999/xlink" x="0px" y="0px"
	 width="220.758px" height="42.655px" viewBox="0 0 220.758 42.655" enable-background="new 0 0 220.758 42.655"
	 xml:space="preserve">
<g>
	<path fill="#FFFFFF" d="M35.209,3l12.336,21.409l1.71-3.081L36.941,0l0,0H12.313L0,21.328l12.313,21.327h24.628l7.021-12.787
		L33.628,11.951H18.545l-7.167,11.167h14.417l9.414,16.537H14.046L3.464,21.328L14.046,3H35.209"/>
	<g>
		<path fill="#FFFFFF" d="M75.104,29.524l-0.864-2.809c-0.016-0.048-0.048-0.072-0.096-0.072h-6.744
			c-0.048,0-0.08,0.024-0.096,0.072l-0.864,2.809c-0.048,0.127-0.144,0.191-0.288,0.191h-1.943c-0.177,0-0.24-0.088-0.192-0.264
			l5.256-16.344c0.048-0.128,0.145-0.192,0.288-0.192h2.4c0.144,0,0.239,0.064,0.288,0.192l5.304,16.344l0.023,0.096
			c0,0.112-0.071,0.168-0.216,0.168h-1.968C75.248,29.716,75.151,29.651,75.104,29.524z M67.916,24.784
			c0.023,0.023,0.052,0.035,0.084,0.035h5.52c0.032,0,0.061-0.012,0.084-0.035c0.024-0.024,0.028-0.053,0.012-0.084l-2.783-8.904
			c-0.017-0.032-0.04-0.048-0.072-0.048s-0.057,0.016-0.072,0.048L67.903,24.7C67.888,24.731,67.892,24.76,67.916,24.784z"/>
		<path fill="#FFFFFF" d="M82.567,29.524L78.056,13.18l-0.024-0.072c0-0.128,0.08-0.192,0.24-0.192h1.944
			c0.144,0,0.231,0.072,0.264,0.216l3.145,11.952c0.016,0.032,0.035,0.048,0.06,0.048s0.044-0.016,0.06-0.048l2.977-11.952
			c0.032-0.144,0.12-0.216,0.264-0.216h1.896c0.144,0,0.231,0.072,0.264,0.216l3.145,11.977c0.016,0.031,0.031,0.047,0.048,0.047
			c0.016,0,0.031-0.016,0.048-0.047l3.168-11.977c0.032-0.144,0.12-0.216,0.264-0.216h1.824c0.08,0,0.14,0.024,0.18,0.072
			s0.052,0.112,0.036,0.192L93.512,29.5c-0.032,0.144-0.12,0.216-0.264,0.216h-1.849c-0.144,0-0.231-0.072-0.264-0.216
			l-3.145-12.384c-0.016-0.048-0.032-0.072-0.048-0.072s-0.032,0.024-0.048,0.072L84.848,29.5c-0.017,0.144-0.104,0.216-0.264,0.216
			h-1.752C82.688,29.716,82.6,29.651,82.567,29.524z"/>
		<path fill="#FFFFFF" d="M111.127,14.908h-8.52c-0.064,0-0.096,0.032-0.096,0.096v5.16c0,0.064,0.031,0.096,0.096,0.096h5.855
			c0.16,0,0.24,0.08,0.24,0.24v1.512c0,0.16-0.08,0.24-0.24,0.24h-5.855c-0.064,0-0.096,0.032-0.096,0.096v5.28
			c0,0.064,0.031,0.096,0.096,0.096h8.52c0.16,0,0.24,0.08,0.24,0.24v1.512c0,0.16-0.08,0.24-0.24,0.24h-10.68
			c-0.16,0-0.24-0.08-0.24-0.24v-16.32c0-0.16,0.08-0.24,0.24-0.24h10.68c0.16,0,0.24,0.08,0.24,0.24v1.512
			C111.367,14.828,111.287,14.908,111.127,14.908z"/>
		<path fill="#FFFFFF" d="M116.54,29.332c-0.904-0.384-1.601-0.928-2.088-1.632c-0.488-0.704-0.732-1.528-0.732-2.473v-0.695
			c0-0.16,0.08-0.24,0.24-0.24h1.752c0.159,0,0.24,0.08,0.24,0.24v0.576c0,0.815,0.352,1.487,1.056,2.016
			c0.704,0.527,1.672,0.792,2.904,0.792c1.104,0,1.936-0.231,2.496-0.696c0.56-0.464,0.84-1.072,0.84-1.824
			c0-0.496-0.145-0.92-0.433-1.271s-0.708-0.676-1.26-0.973c-0.552-0.295-1.355-0.651-2.412-1.067
			c-1.168-0.448-2.092-0.856-2.771-1.224c-0.681-0.368-1.244-0.852-1.692-1.452s-0.672-1.356-0.672-2.268
			c0-1.375,0.492-2.456,1.476-3.24c0.984-0.784,2.316-1.176,3.996-1.176c1.185,0,2.224,0.2,3.12,0.6
			c0.896,0.4,1.588,0.96,2.076,1.68c0.488,0.72,0.732,1.552,0.732,2.496v0.48c0,0.16-0.081,0.24-0.24,0.24h-1.8
			c-0.16,0-0.24-0.08-0.24-0.24v-0.36c0-0.832-0.332-1.524-0.996-2.076c-0.664-0.552-1.58-0.828-2.748-0.828
			c-0.992,0-1.76,0.204-2.304,0.612c-0.544,0.408-0.816,0.996-0.816,1.764c0,0.528,0.136,0.96,0.408,1.296
			c0.271,0.336,0.676,0.636,1.212,0.9c0.536,0.264,1.356,0.604,2.46,1.02c1.136,0.448,2.056,0.86,2.76,1.236
			s1.288,0.872,1.752,1.488c0.464,0.615,0.696,1.379,0.696,2.291c0,1.408-0.516,2.525-1.548,3.349
			c-1.032,0.824-2.452,1.235-4.26,1.235C118.512,29.907,117.443,29.716,116.54,29.332z"/>
		<path fill="#FFFFFF" d="M131.047,29.212c-0.896-0.48-1.592-1.156-2.088-2.028s-0.744-1.876-0.744-3.012V18.46
			c0-1.136,0.248-2.136,0.744-3c0.496-0.864,1.191-1.536,2.088-2.016s1.928-0.72,3.097-0.72c1.184,0,2.224,0.24,3.119,0.72
			c0.896,0.48,1.593,1.152,2.089,2.016c0.495,0.864,0.743,1.864,0.743,3v5.712c0,1.136-0.248,2.14-0.743,3.012
			c-0.496,0.872-1.192,1.548-2.089,2.028c-0.896,0.48-1.936,0.72-3.119,0.72C132.975,29.932,131.943,29.692,131.047,29.212z
			 M136.783,26.932c0.672-0.672,1.008-1.56,1.008-2.664v-5.832c0-1.12-0.336-2.02-1.008-2.7c-0.672-0.68-1.552-1.02-2.64-1.02
			c-1.089,0-1.965,0.34-2.629,1.02c-0.664,0.68-0.995,1.58-0.995,2.7v5.832c0,1.104,0.331,1.992,0.995,2.664
			c0.664,0.673,1.54,1.009,2.629,1.009C135.231,27.94,136.111,27.604,136.783,26.932z"/>
		<path fill="#FFFFFF" d="M154.759,12.916h1.824c0.159,0,0.24,0.08,0.24,0.24v16.32c0,0.16-0.081,0.24-0.24,0.24h-1.824
			c-0.16,0-0.24-0.08-0.24-0.24V17.188c0-0.048-0.016-0.08-0.048-0.096c-0.032-0.016-0.056,0-0.072,0.048l-3.432,5.232
			c-0.064,0.096-0.16,0.144-0.288,0.144h-0.912c-0.112,0-0.208-0.048-0.288-0.144l-3.456-5.184c-0.016-0.048-0.04-0.064-0.071-0.048
			c-0.032,0.016-0.048,0.048-0.048,0.096v12.24c0,0.16-0.081,0.24-0.24,0.24h-1.824c-0.16,0-0.24-0.08-0.24-0.24v-16.32
			c0-0.16,0.08-0.24,0.24-0.24h1.824c0.128,0,0.224,0.048,0.288,0.144l4.199,6.288c0.017,0.016,0.04,0.024,0.072,0.024
			s0.056-0.008,0.072-0.024l4.176-6.288C154.551,12.964,154.646,12.916,154.759,12.916z"/>
		<path fill="#FFFFFF" d="M171.679,14.908h-8.52c-0.064,0-0.096,0.032-0.096,0.096v5.16c0,0.064,0.031,0.096,0.096,0.096h5.855
			c0.16,0,0.24,0.08,0.24,0.24v1.512c0,0.16-0.08,0.24-0.24,0.24h-5.855c-0.064,0-0.096,0.032-0.096,0.096v5.28
			c0,0.064,0.031,0.096,0.096,0.096h8.52c0.16,0,0.24,0.08,0.24,0.24v1.512c0,0.16-0.08,0.24-0.24,0.24h-10.68
			c-0.16,0-0.24-0.08-0.24-0.24v-16.32c0-0.16,0.08-0.24,0.24-0.24h10.68c0.16,0,0.24,0.08,0.24,0.24v1.512
			C171.919,14.828,171.839,14.908,171.679,14.908z"/>
		<path fill="#FFFFFF" d="M189.822,29.524l-0.864-2.809c-0.016-0.048-0.048-0.072-0.096-0.072h-6.744
			c-0.048,0-0.08,0.024-0.096,0.072l-0.864,2.809c-0.048,0.127-0.144,0.191-0.288,0.191h-1.943c-0.177,0-0.24-0.088-0.192-0.264
			l5.256-16.344c0.048-0.128,0.145-0.192,0.288-0.192h2.4c0.144,0,0.239,0.064,0.288,0.192l5.304,16.344l0.023,0.096
			c0,0.112-0.071,0.168-0.216,0.168h-1.968C189.967,29.716,189.87,29.651,189.822,29.524z M182.635,24.784
			c0.023,0.023,0.052,0.035,0.084,0.035h5.52c0.032,0,0.061-0.012,0.084-0.035c0.024-0.024,0.028-0.053,0.012-0.084l-2.783-8.904
			c-0.017-0.032-0.04-0.048-0.072-0.048s-0.057,0.016-0.072,0.048l-2.784,8.904C182.606,24.731,182.61,24.76,182.635,24.784z"/>
		<path fill="#FFFFFF" d="M204.187,13.504c0.744,0.408,1.32,0.98,1.728,1.716c0.408,0.736,0.612,1.584,0.612,2.544
			s-0.208,1.8-0.624,2.52c-0.416,0.72-1.004,1.28-1.764,1.68c-0.761,0.4-1.637,0.6-2.628,0.6h-4.225
			c-0.063,0-0.096,0.033-0.096,0.096v6.816c0,0.16-0.08,0.24-0.24,0.24h-1.823c-0.16,0-0.24-0.08-0.24-0.24V13.132
			c0-0.16,0.08-0.24,0.24-0.24h6.479C202.582,12.892,203.442,13.096,204.187,13.504z M203.419,19.9
			c0.535-0.528,0.804-1.224,0.804-2.088c0-0.88-0.269-1.588-0.804-2.124c-0.537-0.536-1.245-0.804-2.124-0.804h-4.009
			c-0.063,0-0.096,0.032-0.096,0.096v5.616c0,0.064,0.032,0.096,0.096,0.096h4.009C202.174,20.692,202.882,20.428,203.419,19.9z"/>
		<path fill="#FFFFFF" d="M218.418,13.504c0.744,0.408,1.32,0.98,1.728,1.716c0.408,0.736,0.612,1.584,0.612,2.544
			s-0.208,1.8-0.624,2.52c-0.416,0.72-1.004,1.28-1.764,1.68c-0.761,0.4-1.637,0.6-2.628,0.6h-4.225
			c-0.063,0-0.096,0.033-0.096,0.096v6.816c0,0.16-0.08,0.24-0.24,0.24h-1.823c-0.16,0-0.24-0.08-0.24-0.24V13.132
			c0-0.16,0.08-0.24,0.24-0.24h6.479C216.813,12.892,217.674,13.096,218.418,13.504z M217.65,19.9
			c0.535-0.528,0.804-1.224,0.804-2.088c0-0.88-0.269-1.588-0.804-2.124c-0.537-0.536-1.245-0.804-2.124-0.804h-4.009
			c-0.063,0-0.096,0.032-0.096,0.096v5.616c0,0.064,0.032,0.096,0.096,0.096h4.009C216.405,20.692,217.113,20.428,217.65,19.9z"/>
	</g>
</g>
</svg>
